<svg width="31" height="30" viewBox="0 0 31 30" fill="none" xmlns="http://www.w3.org/2000/svg">
<path fill-rule="evenodd" clip-rule="evenodd" d="M15.3776 0.00519015C6.88621 0.00519015 0 6.89025 0 15.3828C0 22.1776 4.40576 27.9399 10.5161 29.9743C11.2852 30.1167 11.5679 29.6399 11.5679 29.2335C11.5679 28.8668 11.5525 27.6556 11.5463 26.3716C7.26769 27.302 6.36575 24.5564 6.36575 24.5564C5.66643 22.7787 4.65834 22.3059 4.65834 22.3059C3.26316 21.3506 4.7645 21.3716 4.7645 21.3716C6.30837 21.4794 7.12121 22.9552 7.12121 22.9552C8.49371 25.3063 10.7198 24.6257 11.5968 24.2334C11.7353 23.2396 12.1326 22.5607 12.5731 22.1765C9.15718 21.7888 5.56652 20.4697 5.56652 14.5767C5.56652 12.8983 6.16819 11.5259 7.15072 10.4496C6.99069 10.0614 6.46394 8.49823 7.29887 6.38046C7.29887 6.38046 8.59016 5.96669 11.5293 7.95672C12.7553 7.61672 14.0704 7.4453 15.3765 7.43963C16.6837 7.4453 18.0011 7.61615 19.2288 7.95672C22.164 5.96784 23.4541 6.38046 23.4541 6.38046C24.2902 8.49881 23.7657 10.0631 23.6057 10.4497C24.5916 11.5259 25.1882 12.8983 25.1882 14.5767C25.1882 20.4833 21.5895 21.7819 18.1663 22.1628C18.718 22.6396 19.2107 23.5756 19.2107 25.0094C19.2107 27.0658 19.1931 28.7232 19.1931 29.2289C19.1931 29.6382 19.4701 30.1167 20.25 29.9668C26.3568 27.9314 30.757 22.1684 30.757 15.3776C30.757 6.88621 23.8719 0 15.3788 0L15.3777 0.0051421L15.3776 0.00519015Z" fill="black"/>
</svg>
