<svg width="41" height="40" viewBox="0 0 41 40" fill="none" xmlns="http://www.w3.org/2000/svg">
<path fill-rule="evenodd" clip-rule="evenodd" d="M20.5035 0.0069202C9.18161 0.0069202 0 9.187 0 20.5103C0 29.5702 5.87434 37.2532 14.0215 39.9657C15.0469 40.1556 15.4238 39.5199 15.4238 38.978C15.4238 38.4891 15.4034 36.8741 15.395 35.1622C9.69025 36.4026 8.48767 32.7419 8.48767 32.7419C7.55524 30.3715 6.21112 29.7412 6.21112 29.7412C4.35088 28.4674 6.35267 28.4954 6.35267 28.4954C8.41117 28.6393 9.49494 30.607 9.49494 30.607C11.3249 33.7417 14.2931 32.8342 15.4624 32.3112C15.6471 30.9861 16.1768 30.081 16.7641 29.5686C12.2096 29.0517 7.42203 27.2929 7.42203 19.4357C7.42203 17.1978 8.22426 15.3678 9.53429 13.9328C9.32091 13.4152 8.61858 11.331 9.73183 8.50728C9.73183 8.50728 11.4535 7.95559 15.3724 10.609C17.0071 10.1556 18.7606 9.92707 20.502 9.91951C22.2449 9.92707 24.0015 10.1549 25.6385 10.609C29.552 7.95713 31.2721 8.50728 31.2721 8.50728C32.3869 11.3317 31.6877 13.4175 31.4742 13.9329C32.7888 15.3678 33.5842 17.1978 33.5842 19.4357C33.5842 27.311 28.7861 29.0426 24.2217 29.5504C24.9573 30.1861 25.6142 31.4341 25.6142 33.3458C25.6142 36.0877 25.5908 38.2976 25.5908 38.9719C25.5908 39.5176 25.9601 40.1556 26.9999 39.9558C35.1424 37.2419 41.0093 29.5579 41.0093 20.5035C41.0093 9.18161 31.8292 0 20.505 0L20.5036 0.00685613L20.5035 0.0069202Z" fill="black"/>
</svg>
