<svg width="30" height="30" viewBox="0 0 30 30" fill="none" xmlns="http://www.w3.org/2000/svg">
<g clip-path="url(#clip0_1_2)">
<path fill-rule="evenodd" clip-rule="evenodd" d="M29.4001 15.3333C29.4001 14.1 29.3 13.2 29.0834 12.2667H15V17.8332H23.2666C23.1001 19.2166 22.2001 21.3 20.2 22.6999L20.172 22.8863L24.6248 26.3359L24.9334 26.3667C27.7666 23.75 29.4001 19.9 29.4001 15.3333Z" fill="#4285F4"/>
<path fill-rule="evenodd" clip-rule="evenodd" d="M15 30C19.05 30 22.4499 28.6666 24.9334 26.3667L20.2 22.6999C18.9333 23.5833 17.2333 24.1999 15 24.1999C11.0334 24.1999 7.66675 21.5834 6.4666 17.9667L6.29074 17.9817L1.6605 21.565L1.59993 21.7333C4.06656 26.6333 9.1333 30 15 30Z" fill="#34A853"/>
<path fill-rule="evenodd" clip-rule="evenodd" d="M6.4666 17.9667C6.14998 17.0334 5.96665 16.0333 5.96665 15C5.96665 13.9667 6.14989 12.9667 6.44995 12.0334L6.44158 11.8346L1.75338 8.19361L1.60002 8.2666C0.583381 10.3 9.00001e-05 12.5833 9.00001e-05 15C9.00001e-05 17.4166 0.583471 19.6998 1.60002 21.7332L6.46669 17.9666" fill="#FBBC04"/>
<path fill-rule="evenodd" clip-rule="evenodd" d="M15 5.79997C17.8167 5.79997 19.7166 7.01668 20.8 8.03341L25.0333 3.90006C22.4334 1.48338 19.05 9.00001e-05 15 9.00001e-05C9.1333 9.00001e-05 4.06665 3.36672 1.59993 8.26669L6.44995 12.0335C7.66675 8.41681 11.0334 5.80006 15 5.80006" fill="#EA4335"/>
</g>
<defs>
<clipPath id="clip0_1_2">
<rect width="29.4001" height="30" fill="white"/>
</clipPath>
</defs>
</svg>
