<svg width="40" height="40" viewBox="0 0 40 40" fill="none" xmlns="http://www.w3.org/2000/svg">
<g clip-path="url(#clip0_1_2)">
<path fill-rule="evenodd" clip-rule="evenodd" d="M39.2001 20.4444C39.2001 18.7999 39.0666 17.5999 38.7779 16.3555H20.0001V23.7777H31.0222C30.8001 25.6222 29.6001 28.3999 26.9333 30.2665L26.896 30.5151L32.8331 35.1146L33.2445 35.1556C37.0222 31.6667 39.2001 26.5333 39.2001 20.4444Z" fill="#4285F4"/>
<path fill-rule="evenodd" clip-rule="evenodd" d="M20.0001 40C25.3999 40 29.9332 38.2222 33.2445 35.1556L26.9333 30.2666C25.2444 31.4444 22.9777 32.2666 20.0001 32.2666C14.7112 32.2666 10.2223 28.7778 8.62213 23.9556L8.38765 23.9755L2.214 28.7534L2.13324 28.9778C5.42209 35.511 12.1777 40 20.0001 40Z" fill="#34A853"/>
<path fill-rule="evenodd" clip-rule="evenodd" d="M8.62213 23.9556C8.19997 22.7112 7.95553 21.3778 7.95553 20.0001C7.95553 18.6222 8.19985 17.2889 8.59993 16.0445L8.58877 15.7794L2.33784 10.9248L2.13336 11.0221C0.777841 13.7333 0.00012 16.7777 0.00012 19.9999C0.00012 23.2222 0.777961 26.2665 2.13336 28.9776L8.62225 23.9555" fill="#FBBC04"/>
<path fill-rule="evenodd" clip-rule="evenodd" d="M20.0001 7.73329C23.7556 7.73329 26.2888 9.35557 27.7333 10.7112L33.3778 5.20009C29.9112 1.97784 25.3999 0.00012 20.0001 0.00012C12.1777 0.00012 5.42221 4.48896 2.13324 11.0223L8.59993 16.0446C10.2223 11.2224 14.7112 7.73341 20.0001 7.73341" fill="#EA4335"/>
</g>
<defs>
<clipPath id="clip0_1_2">
<rect width="39.2001" height="40" fill="white"/>
</clipPath>
</defs>
</svg>
